<?xml version="1.0" standalone="no"?>
<!DOCTYPE svg PUBLIC "-//W3C//DTD SVG 20010904//EN"
 "http://www.w3.org/TR/2001/REC-SVG-20010904/DTD/svg10.dtd">
<svg version="1.0" xmlns="http://www.w3.org/2000/svg"
 width="1071.000000pt" height="723.000000pt" viewBox="0 0 1071.000000 723.000000"
 preserveAspectRatio="xMidYMid meet">
<metadata>
Created by potrace 1.16, written by Peter Selinger 2001-2019
</metadata>
<g transform="translate(0.000000,723.000000) scale(0.100000,-0.100000)"
fill="#000000" stroke="none">
<path d="M1545 7219 c-346 -49 -577 -165 -740 -372 -114 -143 -181 -308 -236
-577 -36 -177 -44 -376 -20 -485 29 -134 108 -259 286 -455 208 -228 284 -403
286 -658 l1 -77 1594 3 1594 2 -6 -57 c-7 -65 0 -106 45 -278 25 -93 32 -141
33 -215 0 -150 -30 -212 -147 -295 -24 -18 -28 -28 -28 -68 0 -38 12 -71 61
-170 84 -165 90 -196 67 -337 -22 -138 -16 -269 19 -422 28 -121 44 -152 88
-167 68 -24 96 33 71 140 -14 59 -15 79 -5 127 13 63 80 201 141 291 37 54
143 161 161 161 4 0 -9 -35 -30 -77 -39 -81 -79 -217 -67 -229 4 -4 29 7 57
24 l49 31 7 -50 c6 -45 9 -49 33 -49 56 0 100 71 102 162 l1 53 24 -52 c13
-29 28 -53 33 -53 25 0 44 16 63 54 18 34 22 66 28 196 7 149 8 159 46 255 34
87 39 111 39 180 0 71 -4 89 -38 165 -54 118 -57 159 -18 235 41 81 40 110 -5
149 -104 90 -114 102 -114 143 0 22 11 77 25 123 43 144 29 274 -38 362 -45
58 -49 74 -33 113 48 114 228 72 391 -90 125 -124 180 -253 192 -448 l6 -98
31 29 c32 30 120 92 130 92 3 0 6 -87 6 -193 l0 -194 58 -13 c31 -7 63 -15 70
-17 9 -4 12 48 12 241 l0 246 275 0 c177 0 275 4 275 10 0 6 9 10 20 10 11 0
20 -4 20 -10 0 -7 521 -10 1543 -10 l1542 0 150 153 c83 84 179 185 216 223
475 503 596 872 413 1264 -164 350 -559 617 -1045 709 -280 53 -540 53 -804 0
-125 -25 -226 -59 -337 -114 -90 -45 -98 -50 -268 -178 -394 -296 -1103 -450
-1820 -397 -610 46 -1095 165 -2330 573 -645 214 -1220 351 -1620 387 -135 12
-469 11 -555 -1z"/>
<path d="M1747 4403 c-4 -3 -4 -134 0 -290 l6 -283 -470 0 -471 0 -28 -37
c-15 -21 -32 -39 -36 -41 -4 -2 -8 -8 -8 -14 0 -6 -9 -20 -19 -32 -11 -11 -54
-63 -95 -113 l-76 -92 0 -401 0 -400 -264 0 -264 0 -5 -22 c-3 -13 -9 -44 -12
-70 l-7 -48 276 0 276 0 0 -380 c0 -209 -2 -380 -5 -380 -7 0 -105 59 -164
100 -81 55 -175 138 -221 194 l-40 48 0 -39 c0 -56 39 -126 130 -236 116 -138
355 -343 575 -490 55 -37 105 -71 110 -75 6 -4 26 -18 46 -30 l36 -22 1099 0
1099 0 17 -47 c34 -96 91 -176 198 -280 82 -82 111 -104 140 -108 38 -6 81
-25 150 -67 65 -40 216 -75 460 -109 455 -62 510 -71 675 -111 94 -22 205 -54
247 -69 94 -35 176 -39 202 -10 30 34 109 185 175 335 l21 49 213 -6 c123 -4
264 -14 335 -25 109 -16 133 -17 205 -5 45 7 122 16 172 19 69 5 95 11 111 26
14 12 42 21 80 25 103 10 451 188 524 268 14 15 55 47 93 71 l67 44 1295 0
1294 0 142 96 c262 177 441 326 547 459 77 95 85 111 112 216 28 105 24 263
-8 345 -48 125 -182 274 -309 344 -24 13 -43 27 -43 32 0 4 -6 8 -14 8 -8 0
-21 6 -28 13 -24 21 -223 121 -453 227 -99 45 -183 87 -186 92 -3 5 -9 9 -13
8 -13 -4 -66 22 -66 32 0 5 -5 6 -10 3 -5 -3 -10 -2 -10 3 0 5 -6 9 -14 9 -7
0 -58 26 -112 59 -125 75 -287 231 -326 314 -44 93 -61 175 -55 265 8 100 27
166 83 278 24 48 44 90 44 92 0 3 -697 5 -1550 5 l-1550 0 0 -37 0 -38 94 -37
c52 -21 99 -38 104 -38 21 0 72 -73 86 -123 30 -104 60 -377 64 -574 3 -181 4
-193 22 -193 29 0 34 -18 15 -61 -17 -36 -17 -40 -1 -63 17 -26 21 -73 8 -91
-4 -6 -19 -16 -34 -22 -37 -16 -35 -38 2 -53 61 -25 74 -74 40 -145 -22 -46
-24 -65 -10 -97 8 -16 7 -37 -3 -73 -10 -40 -10 -58 -1 -90 17 -56 17 -136 0
-161 -8 -12 -20 -43 -27 -70 -12 -49 -36 -98 -115 -231 l-43 -73 -3 -287 c-3
-316 -4 -319 -64 -348 -28 -13 -163 -15 -1024 -15 -1088 0 -1032 -3 -1065 60
-12 24 -15 83 -15 357 l0 329 -70 57 c-42 34 -70 65 -70 76 0 36 -33 63 -84
68 l-48 6 6 49 c8 57 -11 98 -44 98 -22 0 -27 25 -7 33 22 8 50 115 42 163 -6
41 -5 45 27 64 18 11 38 21 43 23 6 2 10 37 10 78 0 60 4 80 22 104 16 22 25
61 37 150 9 66 19 137 22 158 l7 37 -297 0 -296 0 0 635 0 635 -823 0 c-453 0
-827 -3 -830 -7z m3645 -3451 c14 -53 25 -99 22 -101 -4 -4 -142 30 -283 70
-130 37 -208 70 -189 79 7 4 67 11 133 14 66 4 152 13 190 21 39 7 77 13 85
14 11 1 23 -27 42 -97z"/>
</g>
</svg>
